<svg viewBox="-477,-477,954,954" stroke-linejoin="round" stroke-linecap="round" xmlns="http://www.w3.org/2000/svg" xmlns:xlink="http://www.w3.org/1999/xlink"><path fill="lightsteelblue" fill-opacity="0.2" d="M0,-304.307L5.224,-304.262L11.355,-330.597L16.444,-319.018L21.918,-318.688L27.386,-318.265L32.456,-313.985L37.841,-313.381L42.179,-305.189L47.412,-304.42L53.924,-311.018L62.806,-328.628L69.986,-334.908L75.725,-333.657L82.342,-335.983L88.097,-334.52L87.669,-311.108L92.997,-309.557L98.297,-307.915L102.356,-302.598L110.083,-307.922L114.018,-302.447L121.984,-307.479L119.967,-287.877L130.952,-299.643L132.927,-290.47L141.161,-294.971L142.82,-285.736L147.704,-283.242L148.931,-274.016L172.249,-304.347L175.528,-298.085L180.619,-295.028L191.749,-301.461L194.811,-294.968L195.567,-285.339L204.821,-288.107L203.002,-275.412L212.294,-277.899L217.033,-274.214L209.715,-255.818L209.178,-246.411L228.364,-259.836L222.606,-244.683L237.149,-251.844L246.718,-253.155L248.341,-246.218L249.799,-239.302L228.88,-211.848L232.483,-207.887L247.47,-213.759L254.009,-211.903L269.395,-217.005L264.12,-205.381L270.633,-203.088L271.014,-196.193L274.342,-191.512L290.146,-195.223L287.105,-186.098L274.208,-171.126L290.08,-174.185L279.921,-161.612L289.271,-160.454L305.342,-162.577L291.239,-148.709L307.344,-150.337L316.733,-148.247L336.5,-150.512L325.115,-138.772L337.964,-137.447L357.917,-138.45L338.931,-124.46L341.018,-118.624L364.57,-119.841L359.345,-111.326L364.836,-106.198L366.605,-99.92L349.932,-88.951L355.09,-83.8L356.476,-77.692L339.207,-67.851L340.321,-62.018L333.869,-54.938L334.763,-49.199L339.31,-43.931L366.335,-41.049L344.385,-32.614L359.983,-27.865L375.516,-22.59L368.288,-15.816L372.287,-9.589L376.181,-3.229L391.314,3.359L330.682,8.517L349.388,15.004L367.962,22.136L393.934,30.493L378.286,35.824L362.575,40.627L350.567,45.388L368.453,54.15L371.203,61.081L381.266,69.479L372.597,74.53L360.173,78.498L366.137,86.407L364.599,92.68L370.256,100.915L364.836,106.198L377.416,116.924L393.324,129.294L373.179,129.811L360.241,132.285L333.216,128.895L348.478,141.723L366.873,156.596L374.492,167.505L361.281,169.098L324.337,158.65L351.894,179.679L362.116,192.806L345.518,191.653L352.007,203.232L341.979,205.349L328.774,205.18L306.154,198.445L321.537,216.345L333.288,232.661L320.051,231.692L282.738,212.172L305.935,237.897L284.127,228.873L297.588,248.259L316.189,273.117L308.634,275.982L317.734,294.09L301.71,289.032L299.391,296.832L249.359,255.864L255.305,271.126L268.437,295.059L275.821,313.833L243.458,286.793L255.29,311.412L226.426,286.081L207.7,271.886L205.247,278.457L217.975,306.609L219.097,319.669L201.066,304.44L230.331,362.118L216.179,353.112L183.207,311.126L192.748,340.568L190.487,350.475L165.199,316.79L176.652,353.423L150.96,315.449L158.118,345.517L159.739,365.515L149.075,357.726L144.308,363.749L131.369,348.471L135.557,379.177L133.877,395.784L142.022,444.881L110.415,367.534L108.194,383.943L91.952,349.155L103.957,424.179L91.635,403.762L88.56,423.794L77.721,406.67L70.729,407.944L55.564,356.759L50.985,368.904L50.542,418.557L44.516,430.653L37.441,435.124L26.072,379.083L19.95,387.031L13.693,398.661L6.393,372.356L0,379.978L-6.848,398.837L-12.784,372.191L-18.782,364.36L-23.736,345.111L-32.251,374.81L-41.404,400.545L-49.181,407.288L-48.913,353.913L-60.804,390.406L-68.143,393.032L-74.88,391.805L-82.369,394.165L-86.611,381.624L-92.249,376.406L-98.697,374.767L-104.089,369.376L-115.858,385.652L-117.858,369.189L-122.966,363.528L-147.02,411.241L-143.381,380.334L-144.308,363.749L-157.808,378.681L-150.649,344.713L-156.544,342.077L-172.193,359.816L-168.194,336.501L-165.199,316.79L-176.033,323.881L-198.339,350.446L-190.887,324.167L-190.497,311.162L-191.749,301.461L-198.981,301.282L-204.124,297.822L-222.36,312.777L-241.165,327.187L-258.231,338.032L-247.559,312.782L-233.702,285.078L-250.804,295.446L-245.848,279.73L-237.883,261.475L-286.431,304.18L-286.329,293.799L-253.715,251.546L-263.46,252.389L-262.2,242.689L-269.148,240.674L-278.966,240.965L-315.02,262.801L-325.378,262.102L-350.737,272.735L-316.026,237.152L-304.727,220.599L-336.391,234.827L-356.068,239.578L-344.253,223.141L-338.404,211.189L-348.467,209.244L-401.157,231.608L-405.074,224.688L-355.437,189.25L-372.112,190.003L-382.116,186.912L-385.268,180.325L-377.946,169.05L-384.272,164.023L-383.526,155.977L-389.676,150.735L-381.551,140.111L-405.341,140.999L-404.107,132.838L-366.573,113.565L-368.469,107.256L-362.955,98.925L-401.269,102.001L-410.326,96.836L-411.927,89.778L-413.408,82.693L-422.211,76.941L-404.803,66.61L-387.17,56.901L-399.346,51.703L-422.735,47.368L-419.719,39.748L-431.657,33.413L-428.39,25.771L-409.869,17.602L-425.24,10.953L-414.015,3.554L-421.582,-3.619L-429.022,-11.05L-417.429,-17.926L-398.176,-23.953L-401.478,-31.077L-400.886,-37.964L-392.655,-43.998L-373.081,-48.303L-390.913,-57.451L-397.336,-65.382L-418.489,-76.263L-409.698,-81.951L-397.14,-86.555L-369.819,-87.276L-371.933,-94.544L-381.207,-103.9L-379.367,-110.428L-348.503,-107.967L-353.787,-116.297L-355.312,-123.596L-356.689,-130.981L-357.917,-138.45L-383.526,-155.977L-366.873,-156.596L-371.038,-165.961L-357.854,-167.494L-351.527,-171.95L-331.675,-169.356L-322.04,-171.468L-312.432,-173.301L-329.071,-189.989L-319.273,-191.714L-312.725,-195.164L-302.979,-196.388L-305.842,-205.784L-299.162,-208.838L-280.209,-202.849L-282.738,-212.172L-279.054,-216.994L-269.395,-217.005L-256.914,-214.327L-253.197,-218.705L-255.046,-228.064L-267.754,-247.829L-266.192,-255.006L-245.654,-243.555L-241.437,-247.736L-237.149,-251.844L-225.152,-247.482L-218.373,-248.468L-211.627,-249.296L-209.715,-255.818L-205.293,-259.38L-200.81,-262.866L-196.268,-266.275L-193.86,-272.688L-187.011,-272.855L-176.045,-266.554L-179.565,-282.306L-164.815,-269.213L-164.009,-278.523L-166.658,-294.469L-152.545,-280.665L-149.454,-286.597L-144.512,-289.12L-139.527,-291.558L-131.353,-287.03L-130.952,-299.643L-121.422,-291.37L-117.798,-296.928L-114.018,-302.447L-106.262,-297.234L-97.507,-288.262L-94.846,-297.102L-88.643,-295.063L-85.617,-303.825L-78.462,-297.932L-73.336,-299.235L-72.375,-318.898L-67.664,-323.797L-61.386,-321.195L-55.863,-322.201L-50.323,-323.113L-42.697,-308.937L-36.934,-305.869L-31.678,-306.457L-26.088,-303.187L-21.14,-307.364L-16.834,-326.575L-10.316,-300.346L-5.159,-300.479ZM-3.6,-209.687L-7.329,-213.376L-10.601,-205.661L-14.649,-212.998L-17.006,-197.637L-22.341,-216.133L-24.688,-204.449L-28.194,-203.995L-31.691,-203.481L-34.533,-199.179L-40.078,-209.706L-42.124,-201.58L-44.741,-197.137L-48.119,-196.34L-50.518,-191.827L-57.909,-205.498L-63.605,-211.721L-64.929,-203.389L-68.411,-202.244L-71.873,-201.04L-75.313,-199.777L-73.15,-184.387L-79.216,-190.089L-77.922,-178.3L-88.843,-194.138L-90.529,-189.172L-90.38,-180.821L-95.22,-182.598L-109.182,-200.882L-105.16,-185.807L-110.254,-187.235L-109.501,-178.861L-112.555,-176.955L-126.001,-190.782L-120.702,-176.108L-121.515,-170.926L-124.431,-168.815L-129.608,-169.661L-139.545,-176.311L-137.754,-168.037L-147.964,-174.301L-145.939,-166.052L-153.86,-169.119L-148.959,-158.189L-156.934,-161.028L-167.736,-166.302L-170.566,-163.398L-162.239,-150.166L-164.793,-147.359L-167.298,-144.508L-169.754,-141.615L-183.946,-148.174L-183.476,-142.672L-185.898,-139.501L-194.395,-140.727L-199.884,-139.535L-199.111,-133.971L-198.207,-128.475L-210.012,-131.063L-205.744,-123.543L-207.834,-119.993L-203.246,-112.737L-211.831,-112.788L-220.475,-112.576L-225.774,-110.437L-224.21,-104.941L-225.978,-101.077L-227.68,-97.183L-239.829,-97.536L-237.939,-92.04L-232.381,-85.333L-237.385,-82.575L-242.362,-79.669L-236.466,-73.258L-241.321,-70.245L-246.142,-67.087L-250.924,-63.784L-255.665,-60.336L-252.966,-55.133L-253.875,-50.782L-243.543,-44.382L-251.735,-41.423L-256.153,-37.646L-253.009,-32.757L-257.294,-28.83L-246.451,-23.339L-243.043,-18.813L-247.107,-14.865L-258.666,-11.108L-258.818,-6.666L-262.678,-2.255L-266.461,2.287L-255.036,6.569L-258.666,11.108L-265.99,16.001L-261.904,20.273L-265.284,25.123L-257.294,28.83L-253.009,32.757L-256.153,37.646L-259.202,42.652L-262.154,47.773L-261.295,52.266L-256.663,55.938L-255.665,60.336L-258.258,65.648L-246.142,67.087L-259.485,75.532L-261.764,81.095L-256.739,84.395L-251.679,87.547L-250.139,91.855L-244.997,94.77L-246.839,100.387L-241.599,103.124L-243.247,108.801L-241.344,112.961L-232.571,113.762L-233.954,119.459L-235.209,125.235L-233.024,129.254L-227.494,131.344L-231.693,139.125L-226.061,141.079L-229.956,149.055L-224.224,150.868L-221.601,154.695L-218.913,158.476L-216.16,162.211L-213.344,165.898L-207.518,167.162L-210.429,175.547L-204.521,176.66L-198.638,177.623L-195.559,181.007L-192.423,184.337L-191.917,190.277L-188.623,193.544L-187.866,199.508L-184.414,202.703L-178.409,202.997L-174.898,206.03L-168.937,206.076L-165.375,208.945L-161.763,211.753L-160.349,217.545L-154.399,217.182L-146.37,213.558L-148.938,225.511L-145.045,228.034L-139.133,227.264L-135.212,229.619L-131.25,231.906L-127.25,234.125L-124.961,239.63L-119.138,238.355L-116.662,243.778L-110.885,242.304L-108.225,247.639L-103.958,249.46L-95.474,240.657L-95.333,252.882L-89.704,250.918L-86.596,256.005L-81.038,253.85L-77.757,258.827L-70.224,249.199L-67.863,257.685L-62.528,255.137L-59.814,263.552L-55.281,264.54L-50.022,261.734L-46.168,266.282L-41.007,263.297L-35.964,260.214L-31.491,260.793L-27.399,265.059L-22.845,265.49L-18.284,265.843L-13.718,266.118L-8.888,258.752L-4.574,266.432L0,270.255L4.639,270.215L9.277,270.096L13.718,266.118L18.284,265.843L22.52,261.721L26.621,257.532L31.038,257.037L35.964,260.214L39.843,255.82L44.229,255.098L49.311,258.018L53.733,257.133L58.139,256.173L62.528,255.137L64.972,246.709L69.197,245.557L74.491,247.956L79.887,250.246L82.959,245.253L85.883,240.23L91.329,242.261L95.474,240.657L96.681,231.998L100.649,230.304L103.013,225.102L111.762,233.539L114.063,228.202L119.713,229.565L120.022,220.828L127.523,225.32L131.372,223.098L133.207,217.583L138.953,218.457L138.512,209.725L146.37,213.558L150.015,211.014L151.37,205.362L154.873,202.734L158.33,200.045L156.944,191.446L162.655,191.608L160.925,183.103L171.683,188.71L174.897,185.735L175.419,179.996L178.483,176.958L178.762,171.25L176.122,163.016L181.715,162.491L184.478,159.348L190.091,158.581L186.893,150.548L192.436,149.64L194.977,146.314L194.395,140.727L202.987,141.701L205.389,138.195L204.556,132.591L210.012,131.063L218.719,131.334L217.664,125.668L206.555,114.572L215.17,114.566L206.996,105.694L215.578,105.45L220.783,103.338L222.524,99.532L224.2,95.698L218.8,88.984L230.882,89.31L232.381,85.333L215.944,75.116L217.202,71.398L225.623,69.899L226.79,66.015L224.239,61.117L228.923,58.191L218.84,51.646L230.785,50.299L235.325,47.072L224.931,40.99L244.269,40.194L233.692,34.345L215.486,27.899L223.454,25.038L223.851,21.199L231.726,17.937L232,13.957L224.645,9.647L228.56,5.887L224.844,1.93L221.06,-1.898L224.778,-5.789L228.425,-9.81L235.776,-14.184L231.726,-17.937L231.384,-21.912L238.494,-26.724L234.248,-30.328L226.206,-33.244L221.868,-36.508L228.654,-41.668L227.905,-45.587L230.785,-50.299L218.84,-51.646L217.922,-55.395L220.589,-60.123L230.423,-67.073L225.623,-69.899L217.202,-71.398L201.65,-70.144L214.623,-78.812L195.594,-75.66L197.771,-80.432L203.321,-86.786L194.894,-87.174L203.649,-95.318L208.78,-102.125L196.887,-100.532L191.793,-102.119L199.937,-110.902L191.451,-110.534L186.282,-111.857L206.802,-129.06L185.507,-120.243L170.859,-114.962L165.758,-115.712L176.006,-127.415L173.793,-130.418L171.529,-133.382L169.214,-136.307L166.849,-139.191L155.845,-134.615L164.793,-147.359L156.686,-145.026L162.369,-155.546L148.928,-147.655L156.934,-161.028L156.741,-166.453L143.676,-157.925L143.441,-163.21L143.067,-168.532L135.355,-165.111L130.153,-164.444L125.014,-163.647L133.411,-180.997L125.899,-177.093L120.702,-176.108L121.831,-184.468L116.616,-183.34L109.501,-178.861L108.334,-183.975L101.433,-179.222L96.534,-177.612L96.97,-185.953L95.455,-190.974L90.529,-189.172L91.992,-201.019L88.528,-202.569L79.216,-190.089L75.941,-191.421L76.648,-203.317L71.873,-201.04L68.411,-202.244L63.778,-199.785L55.985,-186.356L53.804,-190.931L49.555,-188.168L46.317,-188.991L42.229,-186.068L42.124,-201.58L39.368,-205.99L35.826,-206.635L31.691,-203.481L29.748,-215.239L26.048,-215.718L22.341,-216.133L17.979,-208.946L14.649,-212.998L10.017,-194.326L7.069,-205.813L3.6,-209.687L0,-209.718Z"/><path fill="steelblue" fill-opacity="0.2" d="M0,-280.344L4.782,-278.538L9.751,-283.897L14.594,-283.121L19.465,-283.018L23.883,-277.553L29.149,-281.995L34.281,-283.894L38.709,-280.078L43.744,-280.868L48.01,-276.907L53.218,-278.457L59.344,-283.984L62.661,-276.098L68.517,-279.575L72.873,-276.711L77.151,-273.78L83.744,-278.757L87.942,-275.476L92.112,-272.313L96.391,-269.623L101.139,-268.282L106.218,-267.738L109.415,-262.557L115.8,-264.974L118.128,-258.13L125.236,-261.696L128.441,-256.969L134.146,-257.242L138.632,-255.068L142.804,-252.321L148.842,-252.767L154.937,-253.079L159.868,-251.339L164.993,-249.821L169.151,-246.796L170.951,-240.464L177.186,-240.387L181.631,-237.761L187.329,-236.685L189.806,-231.532L190.814,-224.778L196.643,-223.743L199.945,-219.775L204.596,-217.274L208.824,-214.272L214.353,-212.52L213.324,-204.36L209.998,-194.371L212.599,-190.107L220.126,-190.139L227.715,-189.968L232.711,-187.455L229.323,-178.323L237.193,-177.994L238.068,-172.343L240.991,-168.231L247.14,-166.287L249.482,-161.711L248.53,-155.101L256.346,-153.928L260.752,-150.545L261.313,-144.946L262.928,-139.994L266.809,-136.234L270.128,-132.133L271.842,-127.236L272.777,-122.01L281.617,-120.206L282.938,-115.068L291.4,-112.72L292.404,-107.375L292.954,-101.904L295.019,-96.979L298.99,-92.628L298.538,-86.9L296.335,-80.767L300.795,-76.461L304.088,-71.764L300.839,-65.566L301.735,-60.355L297.888,-54.285L299.896,-49.348L298.452,-43.862L297.473,-38.514L303.542,-34.013L305.588,-28.94L316.036,-24.463L313.766,-18.875L315.745,-13.559L312.905,-8.059L311.673,-2.675L310.727,2.667L304.773,7.85L302.326,12.983L305.08,18.353L308.303,23.865L307.095,29.082L301.662,33.802L305.728,39.583L306.126,44.99L304.562,50.116L306.077,55.777L304.888,60.986L299.36,65.244L300.958,71.025L307.945,78.278L304.913,83.105L303.623,88.38L305.676,94.699L304.724,100.169L301.53,104.888L300.928,110.505L302.163,116.883L293.277,119.273L289.447,123.548L288.665,129.116L288.462,135.015L280.834,137.37L286.184,146.128L290.814,154.842L291.091,161.463L283.034,163.41L277.754,166.783L275.01,171.627L269.643,174.779L266.603,179.382L269.378,188.047L263.812,190.98L251.567,188.781L250.978,195.162L250.832,202.052L246.019,205.238L244.034,210.791L242.495,216.841L237.21,219.558L232.45,222.681L229.667,227.705L224.669,230.53L222.494,236.281L223.243,245.383L216.125,245.911L208.689,245.835L207.676,253.331L198.6,250.925L192.541,252.042L189.982,257.747L185.639,261.124L184.872,269.734L179.589,271.921L174.895,274.964L173.409,283.25L167.465,284.392L160.508,283.603L156.61,288.144L151.028,289.616L148.572,297.243L140.262,293.094L135.997,297.179L131.331,300.51L127.753,306.562L121.844,307.127L117.088,310.59L114.35,319.857L110.297,326.074L105.604,330.803L95.065,316.442L91.62,325.129L86.267,327.568L81.892,334.146L75.725,333.657L70.412,336.945L64.226,336.06L57.836,333.581L50.722,325.671L45.287,327.677L40.802,337.896L35.323,341.716L29.998,348.62L23.449,340.939L17.48,339.103L11.69,340.349L5.784,336.915L0,339.554L-5.887,342.888L-11.724,341.344L-16.988,329.558L-22.697,330.012L-29.076,337.907L-35.528,343.696L-40.873,338.489L-46.405,335.765L-52.561,337.477L-58.48,337.3L-64.049,335.131L-69.483,332.501L-75.306,331.812L-80.316,327.715L-86.507,328.483L-92.493,328.224L-97.787,325.501L-104.166,326.297L-108.842,321.773L-116.452,325.736L-121.092,321.211L-126.239,318.205L-130.664,313.547L-137.088,313.684L-141.272,308.704L-145.08,303.162L-150.009,300.119L-155.927,299.01L-159.862,294.128L-167.963,296.774L-171.784,291.727L-176.866,288.897L-179.261,281.828L-184.698,279.656L-189.471,276.444L-195.285,274.693L-201.88,273.889L-211.49,276.847L-215.272,271.989L-215.592,262.987L-221.421,260.834L-226.116,257.278L-223.624,245.802L-236.371,251.017L-239.985,246.245L-239.743,237.694L-242.695,232.497L-246.373,228.039L-251.52,224.911L-255.201,220.437L-263.887,220.144L-268.511,216.293L-273.528,212.697L-276.534,207.516L-281.128,203.515L-294.043,205.265L-296.267,199.342L-290.756,188.464L-292.985,182.844L-298.514,179.249L-309.575,178.733L-316.237,175.411L-306.343,163.111L-304.886,155.677L-319.749,156.405L-326.67,152.898L-325.102,145.414L-316.067,134.91L-318.687,129.607L-334.274,129.305L-331.472,121.721L-321.72,111.911L-322.696,106.076L-318.867,98.786L-319.608,93.033L-322.435,87.881L-332.697,84.57L-348.645,82.279L-350.376,76.363L-351.079,70.226L-341.624,62.255L-339.656,55.89L-344.87,50.684L-350.38,45.364L-352.423,39.49L-357.945,33.898L-350.93,27.164L-346.435,20.841L-341.827,14.68L-349.215,8.995L-344.211,2.955L-345.157,-2.963L-337.49,-8.693L-334.834,-14.379L-341.525,-20.545L-346.026,-26.785L-345.515,-32.721L-349.415,-39.153L-340.061,-44.028L-332.891,-48.924L-331.256,-54.508L-344.416,-62.764L-354.603,-70.931L-340.58,-74.228L-333.732,-78.76L-333.43,-84.757L-335.394,-91.413L-317.791,-92.504L-318.867,-98.786L-312.631,-102.768L-314.752,-109.487L-313.181,-115.005L-312.749,-120.978L-313.605,-127.541L-313.805,-133.945L-302.653,-135.373L-298.057,-139.506L-296.978,-145.267L-287.195,-146.644L-283.133,-150.752L-284.474,-157.793L-284.836,-164.45L-278.889,-167.465L-275.492,-171.927L-267.738,-173.544L-265.19,-178.432L-262.708,-183.391L-260.594,-188.65L-251.87,-189.008L-247.095,-192.143L-240.961,-194.101L-238.61,-199.057L-237.592,-205.226L-236.29,-211.292L-233.322,-215.96L-227.805,-218.232L-219.726,-217.848L-216.35,-221.994L-209.784,-222.783L-203.892,-224.113L-201.513,-229.285L-196.201,-231.124L-193.644,-236.214L-187.329,-236.685L-181.057,-237.009L-177.298,-240.539L-170.512,-239.847L-165.728,-241.802L-162.7,-246.348L-159.259,-250.382L-151.777,-247.916L-149.418,-253.745L-145.693,-257.425L-139.536,-256.73L-133.796,-256.571L-130.894,-261.876L-125.318,-261.866L-119.072,-260.194L-115.725,-264.8L-112.399,-269.717L-107.683,-271.43L-101.539,-269.345L-96.136,-268.91L-91.567,-270.7L-87.942,-275.476L-81.893,-272.597L-77.664,-275.601L-72.777,-276.345L-68.517,-279.575L-63.583,-280.156L-58.338,-279.17L-54.745,-286.448L-49.27,-284.176L-43.773,-281.055L-39.149,-283.264L-33.532,-277.696L-29.13,-281.807L-24.012,-279.061L-19.244,-279.809L-14.575,-282.744L-9.621,-280.116L-4.763,-277.403ZM-4.038,-235.222L-8.206,-238.9L-12.043,-233.622L-16.142,-234.702L-20.169,-234.391L-24.462,-236.644L-27.885,-230.931L-32.83,-237.539L-36.699,-235.632L-41.482,-239.255L-46.293,-242.224L-49.09,-234.912L-52.906,-233.112L-56.719,-231.435L-61.118,-232.073L-64.169,-227.712L-69.157,-230.201L-73.846,-231.323L-78.958,-233.426L-82.253,-230.076L-84.789,-224.913L-90.521,-228.172L-95.152,-228.331L-96.634,-221.117L-100.651,-219.942L-105.637,-220.741L-110.088,-220.249L-112.453,-215.643L-117.854,-216.839L-120.627,-213.137L-126.476,-214.784L-127.181,-207.741L-133.369,-209.678L-138.304,-209.409L-142.52,-207.941L-143.986,-202.534L-146.431,-198.662L-148.327,-194.165L-155.747,-196.782L-159.222,-194.225L-166.328,-195.934L-170.167,-193.619L-171.047,-188.01L-170.747,-181.328L-178.456,-183.112L-184.126,-182.552L-190.238,-182.243L-191.811,-177.537L-193.138,-172.705L-195.645,-168.993L-199.534,-166.458L-202.656,-163.246L-205.28,-159.627L-210.411,-157.896L-214.163,-155.037L-218.499,-152.529L-214.179,-144.109L-219.161,-142.058L-224.296,-139.977L-224.719,-134.938L-229.296,-132.384L-231.701,-128.52L-234.541,-124.88L-240.019,-122.556L-244.127,-119.415L-244.599,-114.485L-247.91,-110.887L-253.431,-108.174L-256.652,-104.378L-254.877,-98.592L-255.289,-93.746L-255.431,-88.852L-258.896,-85.104L-261.945,-81.151L-264.208,-76.907L-266.584,-72.659L-268.709,-68.305L-272.051,-64.203L-274.592,-59.846L-271.127,-54.233L-271.087,-49.401L-271.149,-44.617L-271.875,-39.956L-272.896,-35.332L-274.59,-30.768L-274.889,-26.032L-276.805,-21.426L-276.376,-16.626L-281.346,-12.082L-278.108,-7.163L-281.028,-2.412L-283.676,2.435L-281.512,7.251L-280.59,12.05L-282.986,17.024L-283.029,21.908L-280.163,26.532L-277.222,31.063L-276.085,35.745L-275.244,40.451L-276.375,45.477L-279.648,50.961L-279.845,55.977L-278.104,60.611L-276.102,65.159L-274.209,69.703L-271.695,74.052L-272.018,79.181L-271.342,84.062L-272.015,89.417L-269.904,93.887L-268.43,98.571L-261.582,101.186L-262.61,106.801L-261.086,111.442L-257.58,115.212L-257.107,120.339L-253.474,123.987L-255.015,130.212L-252.575,134.482L-252.545,140.082L-246.335,142.222L-244.019,146.527L-244.196,152.397L-241.068,156.257L-238.35,160.373L-234.476,163.683L-228.567,165.465L-228.114,171.181L-224.545,174.607L-221.809,178.673L-221.033,184.394L-216.833,187.295L-212.881,190.359L-208.332,192.829L-204.855,196.246L-200.247,198.535L-197.073,202.214L-195.648,207.771L-190.907,209.84L-187.026,212.802L-182.979,215.548L-179.731,219.243L-176.763,223.334L-173.822,227.538L-169.553,230.032L-165.36,232.6L-161.236,235.248L-156.549,237.034L-152.863,240.325L-147.431,240.817L-142.987,242.823L-139.543,246.559L-134.296,247.09L-130.822,250.868L-125.989,252.062L-121.316,253.505L-116.711,255.034L-112.543,257.52L-108.906,261.335L-104.474,263.342L-99.737,264.565L-95.69,267.663L-91.263,269.804L-86.273,270.25L-81.839,272.416L-76.638,271.959L-71.909,273.052L-66.941,273.144L-61.74,272.039L-57.487,275.096L-52.898,276.785L-48.333,278.771L-43.183,277.267L-38.281,276.981L-33.568,277.993L-28.627,276.944L-23.767,276.204L-19.008,276.372L-14.24,276.26L-9.523,277.26L-4.762,277.383L0,277.424L4.776,278.179L9.612,279.847L14.456,280.437L19.309,280.743L24.091,279.974L28.709,277.736L33.21,275.028L37.49,271.261L42.049,269.987L46.644,269.029L51.371,268.795L56.558,270.651L61.112,269.272L65.771,268.367L69.79,265.003L74.226,263.401L78.247,260.458L83.914,262.861L87.687,259.231L92.252,258.044L96.067,254.829L101.544,255.956L104.976,251.905L109.134,249.719L112.381,245.573L117.233,244.973L122.183,244.447L126.623,242.817L128.876,237.117L132.554,234.211L136.459,231.738L141.306,230.813L143.826,226.119L148.104,224.248L152.252,222.141L156.482,220.111L159.339,216.174L162.797,213.106L165.727,209.39L170.016,207.392L172.572,203.29L175.912,200.155L180.213,198.085L183.197,194.549L186.51,191.376L190.708,189.078L193.926,185.777L198.753,183.962L199.625,178.506L198.651,171.59L200.405,167.185L201.92,162.652L204.832,159.278L210.108,157.669L214.163,155.037L218.809,152.746L219.829,147.911L221.225,143.395L225.098,140.478L228.125,136.983L230.607,133.141L230.046,127.603L228.529,121.679L230.247,117.566L232.062,113.513L235.861,110.395L236.858,105.943L240.903,102.827L243.509,99.033L244.115,94.429L244.101,89.637L247.034,85.931L248.652,81.737L245.682,76.113L245.317,71.408L249.792,68.082L249.457,63.411L244.433,57.686L248.345,54.126L250.721,50.151L253.779,46.247L254.349,41.853L252.971,37.178L251.32,32.538L252.218,28.262L253.984,24.053L253.228,19.601L251.072,15.104L252.429,10.84L249.552,6.428L254.733,2.187L254.354,-2.183L255.225,-6.574L255.264,-10.962L255.604,-15.377L255.303,-19.762L250.971,-23.767L250.902,-28.114L250.757,-32.466L249.602,-36.683L246.882,-40.624L248.754,-45.331L253.875,-50.782L252.966,-55.133L247.747,-58.468L243.224,-61.826L243.952,-66.49L246.044,-71.62L242.068,-74.993L244.698,-80.437L241.137,-83.88L237.353,-87.159L235.646,-91.153L231.242,-94.044L226.984,-96.886L223.388,-99.919L224.381,-105.022L224.075,-109.606L219.127,-111.888L217.007,-115.544L213.503,-118.426L214.224,-123.682L212.069,-127.341L213.222,-133.066L206.303,-133.723L204.134,-137.35L201.591,-140.726L199.758,-144.61L194.523,-145.974L192.436,-149.64L190.87,-153.752L189.801,-158.339L186.053,-160.708L183.125,-163.752L181.676,-168.156L180.948,-173.344L175.796,-174.294L173.571,-178.099L171.525,-182.154L166.718,-183.252L159.676,-181.682L156.534,-184.397L153.705,-187.495L151.873,-191.886L150.853,-197.472L150.135,-203.687L143.876,-202.38L137.814,-201.075L134.238,-203.253L130.221,-204.729L126.984,-207.419L121.677,-206.634L116.528,-205.893L114.963,-211.52L111.665,-214.133L105.943,-211.957L103.432,-216.134L101.202,-221.146L97.316,-222.677L92.387,-221.695L89.544,-225.711L85.056,-225.621L81.043,-226.692L76.291,-225.541L73.789,-231.142L69.103,-230.02L64.836,-230.08L60.539,-229.878L56.404,-230.149L52.026,-229.238L48.587,-232.505L45.334,-237.207L41.288,-238.136L37.805,-242.735L33.399,-241.662L29.405,-243.514L24.539,-237.397L20.12,-233.825L16.155,-234.891L12.062,-234L8.102,-235.874L4.045,-235.6L0,-234.761Z"/><path fill="none" stroke="steelblue" stroke-width="1.5" d="M0,-259.777L4.401,-256.344L8.952,-260.642L13.474,-261.395L18.241,-265.214L22.25,-258.579L27.042,-261.609L32.285,-267.367L36.87,-266.773L41.735,-267.97L45.306,-261.312L49.193,-257.398L54.314,-259.911L57.86,-254.943L63.504,-259.118L68.264,-259.21L72.618,-257.696L76.94,-256.11L82.38,-258.055L84.777,-250.629L89.173,-249.434L94.777,-251.407L97.916,-246.812L101.168,-242.767L106.078,-242.728L110.098,-240.584L115.028,-240.365L118.01,-236.099L123.503,-236.834L127.25,-234.125L130.629,-230.808L135.212,-229.619L140.286,-229.146L146.398,-230.163L151.718,-229.72L153.144,-223.441L157.687,-221.807L164.839,-223.636L167.123,-218.769L171.441,-216.61L172.935,-210.952L173.47,-204.347L177.369,-201.813L183.777,-202.003L190.028,-201.803L192.804,-197.834L198.411,-196.715L201.531,-193.062L201.113,-186.147L202.398,-180.986L206.43,-178.309L211.397,-176.355L213.657,-172.107L212.099,-164.93L213.891,-160.508L220.956,-159.955L225.221,-157.222L229.456,-154.388L231.543,-150.084L231.411,-144.417L235.478,-141.398L237.597,-137.177L237.436,-131.702L241.331,-128.495L244.344,-124.764L249.848,-122.213L249.054,-116.57L251.306,-112.406L255.808,-109.189L264.071,-107.395L269.11,-104.098L267.306,-98.158L270.142,-93.97L275.011,-90.401L274.113,-84.921L273.411,-79.586L272.027,-74.142L275.982,-70.153L276.838,-65.333L284.08,-61.914L283.246,-56.657L278.594,-50.769L273.513,-45.006L277.053,-40.717L277.398,-35.915L277.347,-31.077L280.979,-26.609L285.481,-22.098L286.762,-17.251L286.701,-12.312L282.2,-7.268L282.759,-2.427L283.923,2.437L276.566,7.123L276.112,11.857L278.192,16.735L283.667,21.958L286.726,27.153L278.986,31.261L278.986,36.12L281.78,41.412L278.73,45.865L279.62,50.956L277.277,55.463L276.284,60.215L274.077,64.681L278.003,70.667L278.434,75.888L272.34,79.274L273.441,84.713L271.946,89.394L269.822,93.858L275.547,101.185L275.67,106.635L270.024,109.817L265.69,113.407L262.11,117.239L260.059,121.721L253.487,123.993L259.616,132.562L257.816,137.272L266.662,147.913L259.442,149.789L254.15,152.61L248.036,154.793L244.854,158.711L239.92,161.429L240.932,168.189L237.557,171.973L230.128,172.692L225.98,175.724L226.33,182.316L225.179,187.852L220.82,190.739L219.465,196.247L216.919,200.777L208.816,200.041L208.038,206.26L205.889,211.26L203.828,216.459L201.649,221.648L198.007,225.295L191.85,225.999L188.68,230.159L183.618,231.995L179.078,234.419L174.855,237.224L172.106,242.088L169.241,246.928L164.175,248.582L159.884,251.364L157.977,258.043L151.013,256.454L145.729,257.488L141.009,259.441L137.611,263.887L134.622,269.335L128.22,267.931L123.723,270.357L119.763,274.041L116.384,279.28L111.358,280.696L105.394,279.571L101.265,283.257L98.346,290.743L94.226,295.161L86.298,287.258L82.302,292.059L77.646,294.836L73.786,301.072L67.931,299.314L62.068,297.018L56.523,295.753L51.786,298.687L46.606,299.244L41.901,303.171L37.283,308.758L32.456,313.985L27.136,315.365L21.299,309.687L16.055,311.46L10.771,313.581L5.294,308.336L0,308.381L-5.279,307.463L-10.596,308.491L-15.56,301.869L-20.84,303.009L-26.438,307.246L-31.977,309.352L-37.353,309.336L-42.578,308.072L-48.129,309.022L-53.526,308.723L-57.944,303.185L-63.021,301.576L-67.286,296.476L-73.474,299.8L-79.129,300.465L-83.644,296.821L-88.894,295.899L-94.668,296.548L-99.372,293.776L-104.597,292.575L-110.117,292.098L-115.115,290.165L-119.295,286.265L-123.609,282.842L-128.325,280.414L-132.617,277.119L-137.485,275.062L-141.917,272.145L-146.429,269.413L-154.234,272.517L-158.09,268.471L-162.675,265.717L-167.382,263.152L-170.658,258.398L-174.89,255.17L-181.254,254.957L-186.353,252.823L-190.787,249.746L-194.726,246.03L-197.921,241.432L-203.057,239.2L-205.657,234L-207.541,228.124L-214.021,227.282L-219.211,224.93L-221.025,219.136L-223.16,213.782L-226.566,209.706L-232.483,207.887L-235.778,203.66L-243.84,203.42L-242.631,195.446L-245.95,191.252L-251.214,188.516L-254.413,184.176L-264.001,184.293L-264.248,177.798L-261.705,169.634L-266.719,166.452L-268.996,161.524L-274.733,158.617L-280.999,155.866L-280.851,149.537L-281.13,143.547L-285.535,139.67L-289.033,135.282L-293.04,131.073L-292.637,124.909L-294.154,119.63L-294.399,113.88L-299.863,110.114L-296.348,103.085L-299.871,98.574L-296.399,91.825L-296.418,86.283L-295.118,80.436L-301.956,76.756L-308.753,72.865L-313.039,68.225L-315.709,63.151L-315.196,57.439L-306.491,50.433L-307.624,45.21L-310.543,40.206L-310.248,34.764L-314.879,29.819L-314.402,24.337L-310.367,18.671L-310.642,13.34L-315.553,8.128L-309.34,2.655L-307.133,-2.636L-307.043,-7.908L-310.642,-13.34L-310.682,-18.69L-310.944,-24.069L-312.996,-29.641L-312.754,-35.045L-308.667,-39.963L-303.256,-44.568L-299.024,-49.204L-303.719,-55.348L-309.217,-61.852L-305.645,-66.614L-301.695,-71.199L-298.9,-75.979L-297.552,-81.099L-287.336,-83.639L-285.557,-88.466L-284.895,-93.651L-279.672,-97.284L-277.665,-101.962L-277.344,-107.283L-282.843,-115.03L-283.067,-120.824L-274.907,-122.962L-273.041,-127.797L-268.541,-131.357L-264.281,-134.944L-259.143,-137.979L-255.909,-141.948L-252.516,-145.79L-248.453,-149.189L-246.39,-153.765L-240.274,-155.743L-237.827,-160.021L-237.63,-165.885L-237.813,-172.158L-233.309,-175.079L-230.269,-179.059L-224.461,-180.81L-223.261,-186.252L-218.837,-189.026L-215.325,-192.545L-208.517,-193L-205.629,-196.988L-199.978,-198.269L-194.784,-199.866L-189.163,-200.885L-188.87,-207.601L-188.192,-214.128L-182.856,-215.404L-177.932,-217.048L-173.789,-219.576L-168.462,-220.523L-162.22,-220.083L-160.976,-226.433L-156.887,-228.903L-151.544,-229.457L-147.414,-231.759L-139.956,-228.608L-137.771,-233.966L-133.89,-236.571L-129.96,-239.111L-123.066,-235.995L-121.111,-242.303L-116.798,-244.062L-113.509,-248.038L-107.341,-245.617L-105.292,-252.662L-100.59,-253.553L-94.332,-250.227L-89.492,-250.325L-86.394,-255.408L-81.805,-256.253L-77.394,-257.619L-72.875,-258.606L-67.782,-257.38L-62.829,-256.362L-59.047,-260.17L-54.83,-262.38L-51.028,-266.999L-46.221,-266.593L-40.91,-262.674L-36.309,-262.713L-31.038,-257.037L-26.977,-260.982L-22.196,-257.951L-17.765,-258.294L-13.458,-261.08L-8.996,-261.903L-4.466,-260.127Z"/><g font-family="sans-serif" font-size="10"><g><path stroke="#000" stroke-opacity="0.2" d="&#xA;              M1.168313046386575e-14,-190.8&#xA;              L2.8595502760090695e-14,-467&#xA;            "/><path id="O-month-1" fill="none" d="&#xA;              M1.168313046386575e-14,-190.8&#xA;              A190.8,190.8 0,0,1 96.8147998032327,-164.41269579646206&#xA;            "/><text><textPath startOffset="6" xlink:href="#O-month-1">January</textPath></text></g><g><path stroke="#000" stroke-opacity="0.2" d="&#xA;              M96.8147998032327,-164.41269579646206&#xA;              L236.96284857499825,-402.4147218917598&#xA;            "/><path id="O-month-2" fill="none" d="&#xA;              M96.8147998032327,-164.41269579646206&#xA;              A190.8,190.8 0,0,1 163.57563104016361,-98.22246652274758&#xA;            "/><text><textPath startOffset="6" xlink:href="#O-month-2">February</textPath></text></g><g><path stroke="#000" stroke-opacity="0.2" d="&#xA;              M163.57563104016361,-98.22246652274758&#xA;              L400.365931319478,-240.40823829204987&#xA;            "/><path id="O-month-3" fill="none" d="&#xA;              M163.57563104016361,-98.22246652274758&#xA;              A190.8,190.8 0,0,1 190.79297116614396,-1.6377281810366369&#xA;            "/><text><textPath startOffset="6" xlink:href="#O-month-3">March</textPath></text></g><g><path stroke="#000" stroke-opacity="0.2" d="&#xA;              M190.79297116614396,-1.6377281810366369&#xA;              L466.9827963028785,-4.008485642264724&#xA;            "/><path id="O-month-4" fill="none" d="&#xA;              M190.79297116614396,-1.6377281810366369&#xA;              A190.8,190.8 0,0,1 166.85096674808293,92.54941866500367&#xA;            "/><text><textPath startOffset="6" xlink:href="#O-month-4">April</textPath></text></g><g><path stroke="#000" stroke-opacity="0.2" d="&#xA;              M166.85096674808293,92.54941866500367&#xA;              L408.3826072922155,226.52294819998278&#xA;            "/><path id="O-month-5" fill="none" d="&#xA;              M166.85096674808293,92.54941866500367&#xA;              A190.8,190.8 0,0,1 96.81479978689876,164.41269580608036&#xA;            "/><text><textPath startOffset="6" xlink:href="#O-month-5">May</textPath></text></g><g><path stroke="#000" stroke-opacity="0.2" d="&#xA;              M96.81479978689876,164.41269580608036&#xA;              L236.9628485350195,402.41472191530147&#xA;            "/><path id="O-month-6" fill="none" d="&#xA;              M96.81479978689876,164.41269580608036&#xA;              A190.8,190.8 0,0,1 3.275335698349115,190.77188518244276&#xA;            "/><text><textPath startOffset="6" xlink:href="#O-month-6">June</textPath></text></g><g><path stroke="#000" stroke-opacity="0.2" d="&#xA;              M3.275335698349115,190.77188518244276&#xA;              L8.01667594931361,466.93118647903964&#xA;            "/><path id="O-month-7" fill="none" d="&#xA;              M3.275335698349115,190.77188518244276&#xA;              A190.8,190.8 0,0,1 -93.97817138479826,166.05042397768665&#xA;            "/><text><textPath startOffset="6" xlink:href="#O-month-7">July</textPath></text></g><g><path stroke="#000" stroke-opacity="0.2" d="&#xA;              M-93.97817138479826,166.05042397768665&#xA;              L-230.01994778145067,406.42320753448456&#xA;            "/><path id="O-month-8" fill="none" d="&#xA;              M-93.97817138479826,166.05042397768665&#xA;              A190.8,190.8 0,0,1 -165.23764705470785,95.3999999781122&#xA;            "/><text><textPath startOffset="6" xlink:href="#O-month-8">August</textPath></text></g><g><path stroke="#000" stroke-opacity="0.2" d="&#xA;              M-165.23764705470785,95.3999999781122&#xA;              L-404.43386359826286,233.49999994642766&#xA;            "/><path id="O-month-9" fill="none" d="&#xA;              M-165.23764705470785,95.3999999781122&#xA;              A190.8,190.8 0,0,1 -190.79297116630667,1.6377281620819555&#xA;            "/><text><textPath startOffset="6" xlink:href="#O-month-9">September</textPath></text></g><g><path stroke="#000" stroke-opacity="0.2" d="&#xA;              M-190.79297116630667,1.6377281620819555&#xA;              L-466.98279630327676,4.008485595871453&#xA;            "/><path id="O-month-10" fill="none" d="&#xA;              M-190.79297116630667,1.6377281620819555&#xA;              A190.8,190.8 0,0,1 -165.23764702627477,-95.40000002735972&#xA;            "/><text><textPath startOffset="6" xlink:href="#O-month-10">October</textPath></text></g><g><path stroke="#000" stroke-opacity="0.2" d="&#xA;              M-165.23764702627477,-95.40000002735972&#xA;              L-404.43386352867043,-233.50000006696536&#xA;            "/><path id="O-month-11" fill="none" d="&#xA;              M-165.23764702627477,-95.40000002735972&#xA;              A190.8,190.8 0,0,1 -96.8147997705649,-164.41269581569858&#xA;            "/><text><textPath startOffset="6" xlink:href="#O-month-11">November</textPath></text></g><g><path stroke="#000" stroke-opacity="0.2" d="&#xA;              M-96.8147997705649,-164.41269581569858&#xA;              L-236.96284849504093,-402.41472193884294&#xA;            "/><path id="O-month-12" fill="none" d="&#xA;              M-96.8147997705649,-164.41269581569858&#xA;              A190.8,190.8 0,0,1 3.791085537753735e-8,-190.8&#xA;            "/><text><textPath startOffset="6" xlink:href="#O-month-12">December</textPath></text></g></g><g text-anchor="middle" font-family="sans-serif" font-size="10"><g fill="none"><circle stroke="#000" stroke-opacity="0.2" r="448.0821917808219"/><text y="-448.0821917808219" dy="0.35em" stroke="#fff" stroke-width="5">100째F</text><text y="-448.0821917808219" dy="0.35em" stroke="none" stroke-width="5" fill="currentColor">100째F</text><text y="448.0821917808219" dy="0.35em" stroke="#fff" stroke-width="5">100째F</text><text y="448.0821917808219" dy="0.35em" stroke="none" stroke-width="5" fill="currentColor">100째F</text></g><g fill="none"><circle stroke="#000" stroke-opacity="0.2" r="410.24657534246575"/><text y="-410.24657534246575" dy="0.35em" stroke="#fff" stroke-width="5">90</text><text y="-410.24657534246575" dy="0.35em" stroke="none" stroke-width="5" fill="currentColor">90</text><text y="410.24657534246575" dy="0.35em" stroke="#fff" stroke-width="5">90</text><text y="410.24657534246575" dy="0.35em" stroke="none" stroke-width="5" fill="currentColor">90</text></g><g fill="none"><circle stroke="#000" stroke-opacity="0.2" r="372.4109589041096"/><text y="-372.4109589041096" dy="0.35em" stroke="#fff" stroke-width="5">80</text><text y="-372.4109589041096" dy="0.35em" stroke="none" stroke-width="5" fill="currentColor">80</text><text y="372.4109589041096" dy="0.35em" stroke="#fff" stroke-width="5">80</text><text y="372.4109589041096" dy="0.35em" stroke="none" stroke-width="5" fill="currentColor">80</text></g><g fill="none"><circle stroke="#000" stroke-opacity="0.2" r="334.57534246575347"/><text y="-334.57534246575347" dy="0.35em" stroke="#fff" stroke-width="5">70</text><text y="-334.57534246575347" dy="0.35em" stroke="none" stroke-width="5" fill="currentColor">70</text><text y="334.57534246575347" dy="0.35em" stroke="#fff" stroke-width="5">70</text><text y="334.57534246575347" dy="0.35em" stroke="none" stroke-width="5" fill="currentColor">70</text></g><g fill="none"><circle stroke="#000" stroke-opacity="0.2" r="296.7397260273973"/><text y="-296.7397260273973" dy="0.35em" stroke="#fff" stroke-width="5">60</text><text y="-296.7397260273973" dy="0.35em" stroke="none" stroke-width="5" fill="currentColor">60</text><text y="296.7397260273973" dy="0.35em" stroke="#fff" stroke-width="5">60</text><text y="296.7397260273973" dy="0.35em" stroke="none" stroke-width="5" fill="currentColor">60</text></g><g fill="none"><circle stroke="#000" stroke-opacity="0.2" r="258.9041095890411"/><text y="-258.9041095890411" dy="0.35em" stroke="#fff" stroke-width="5">50</text><text y="-258.9041095890411" dy="0.35em" stroke="none" stroke-width="5" fill="currentColor">50</text><text y="258.9041095890411" dy="0.35em" stroke="#fff" stroke-width="5">50</text><text y="258.9041095890411" dy="0.35em" stroke="none" stroke-width="5" fill="currentColor">50</text></g><g fill="none"><circle stroke="#000" stroke-opacity="0.2" r="221.06849315068493"/><text y="-221.06849315068493" dy="0.35em" stroke="#fff" stroke-width="5">40</text><text y="-221.06849315068493" dy="0.35em" stroke="none" stroke-width="5" fill="currentColor">40</text><text y="221.06849315068493" dy="0.35em" stroke="#fff" stroke-width="5">40</text><text y="221.06849315068493" dy="0.35em" stroke="none" stroke-width="5" fill="currentColor">40</text></g></g></svg>